<svg xmlns="http://www.w3.org/2000/svg" xmlns:xlink="http://www.w3.org/1999/xlink" version="1.1" x="0px" y="0px" viewBox="0 0 100 125" preserveAspectRatio="xMaxYMin meet" enable-background="new 0 0 100 100" xml:space="preserve">
    <path fill="rgba(0, 0, 0, 0.54)" d="M84.535,26.864c0,0.884-0.715,1.601-1.602,1.601h-8.798c-0.885,0-1.601-0.716-1.601-1.601v-8.798  c0-0.884,0.716-1.601,1.601-1.601h8.798c0.887,0,1.602,0.716,1.602,1.601V26.864z"/>
    <path fill="rgba(0, 0, 0, 0.54)" d="M79.57,5H20.429C11.908,5,5,11.908,5,20.429v59.143C5,88.092,11.908,95,20.429,95h59.143C88.092,95,95,88.092,95,79.57  V20.429C95,11.908,88.092,5,79.57,5z M50,72.5c-12.426,0-22.5-10.074-22.5-22.5S37.574,27.5,50,27.5c12.427,0,22.5,10.074,22.5,22.5  S62.427,72.5,50,72.5z M90,37.5H74.492c-4.552-8.902-13.807-15-24.492-15c-10.685,0-19.939,6.098-24.492,15H10V23.716  C10,16.143,16.143,10,23.716,10h52.573C83.857,10,90,16.143,90,23.716V37.5z"/>
    <path fill="rgba(0, 0, 0, 0.54)" d="M50,32.5c-4.247,0-8.14,1.515-11.17,4.031c1.156-0.588,2.461-0.927,3.847-0.927c4.695,0,8.501,3.806,8.501,8.5  s-3.806,8.501-8.501,8.501s-8.5-3.807-8.5-8.501c0-0.731,0.102-1.437,0.276-2.114C33.212,44.392,32.5,47.11,32.5,50  c0,9.665,7.835,17.5,17.5,17.5S67.5,59.665,67.5,50S59.665,32.5,50,32.5z"/>
</svg>